<?xml version="1.0" encoding="utf-8"?>
<!-- Generator: Adobe Illustrator 15.0.0, SVG Export Plug-In . SVG Version: 6.00 Build 0)  -->
<!DOCTYPE svg PUBLIC "-//W3C//DTD SVG 1.1//EN" "http://www.w3.org/Graphics/SVG/1.1/DTD/svg11.dtd">
<svg version="1.1" id="Layer_1" xmlns="http://www.w3.org/2000/svg" xmlns:xlink="http://www.w3.org/1999/xlink" x="0px" y="0px"
	 width="33.333px" height="47.133px" viewBox="0 0 33.333 47.133" enable-background="new 0 0 33.333 47.133" xml:space="preserve">
<path fill="#FED505" d="M30.468,21.84c-4.525-7.153-9.214-14.229-13.819-21.338C16.647,0.5,16.647,0.5,16.647,0.5
	C12.042,7.609,7.282,14.638,2.826,21.84c-4.977,8.042-1.874,18.914,6.573,23.127c7.934,3.957,17.859,0.608,21.81-7.313
	C33.696,32.667,33.412,26.578,30.468,21.84 M13.728,28.853c0,0.003,0,0.006,0,0.009v0.003c-0.001,2.516-2.044,4.553-4.565,4.553
	s-4.565-2.039-4.565-4.556c0-0.113,0.008-0.225,0.017-0.337c0.026-0.357,0.09-0.705,0.195-1.035
	c0.291-1.241,0.776-2.434,1.452-3.524c2.942-4.756,6.085-9.535,9.125-14.158c0.415-0.631,0.833-1.267,1.254-1.908
	C15.35,15.998,13.716,28.33,13.728,28.853"/>
</svg>
