<?xml version="1.0" encoding="utf-8"?>
<!-- Generator: Adobe Illustrator 15.0.0, SVG Export Plug-In . SVG Version: 6.00 Build 0)  -->
<!DOCTYPE svg PUBLIC "-//W3C//DTD SVG 1.1//EN" "http://www.w3.org/Graphics/SVG/1.1/DTD/svg11.dtd">
<svg version="1.1" id="Layer_1" xmlns="http://www.w3.org/2000/svg" xmlns:xlink="http://www.w3.org/1999/xlink" x="0px" y="0px"
	 width="500px" height="500px" viewBox="0 0 500 500" enable-background="new 0 0 500 500" xml:space="preserve">
<image overflow="visible" opacity="0.4" enable-background="new    " width="512" height="512" xlink:href="A1190DEC.png"  transform="matrix(1 0 0 1 -1 -1)">
</image>
<g>
	<g>
		<g>
			<path fill="#FFFFFF" d="M249.986,24.824C125.563,24.807,25.073,125.19,24.825,249.744
				c-0.247,124.501,99.978,224.841,225.17,225.43c123.556,0.581,224.857-100.388,225.181-224.438
				C475.5,125.854,374.809,24.839,249.986,24.824z M249.729,434.203c-101.652-0.054-183.836-82.305-183.947-184.097
				c-0.111-101.909,82.242-184.312,184.21-184.324c101.735-0.011,184.025,82.112,184.211,183.837
				C434.389,351.775,351.956,434.256,249.729,434.203z"/>
		</g>
		<g>
			<path fill="#FFFFFF" d="M323.092,237.764c-34.979-22.535-69.97-45.048-104.98-67.532c-1.948-1.251-3.996-2.445-6.153-3.254
				c-6.316-2.371-11.375,0.419-12.697,7.031c-0.452,2.257-0.369,4.641-0.371,6.966c-0.024,22.985-0.015,45.971-0.015,68.956
				s0.001,45.971,0,68.958c-0.001,5.184-0.506,10.754,4.828,13.821c5.589,3.22,10.217-0.269,14.704-3.149
				c35.013-22.479,70.01-44.983,104.996-67.506c1.671-1.076,3.341-2.234,4.75-3.621c5.196-5.111,5.248-11.617,0.097-16.771
				C326.738,240.152,324.9,238.929,323.092,237.764z"/>
		</g>
	</g>
</g>
</svg>
