<?xml version="1.0" encoding="utf-8"?>
<!-- Generator: Adobe Illustrator 15.0.0, SVG Export Plug-In . SVG Version: 6.00 Build 0)  -->
<!DOCTYPE svg PUBLIC "-//W3C//DTD SVG 1.1//EN" "http://www.w3.org/Graphics/SVG/1.1/DTD/svg11.dtd">
<svg version="1.1" id="Layer_1" xmlns="http://www.w3.org/2000/svg" xmlns:xlink="http://www.w3.org/1999/xlink" x="0px" y="0px"
	 width="310px" height="310px" viewBox="0 0 310 310" enable-background="new 0 0 310 310" xml:space="preserve">
<g>
	<path fill="#FFFFFF" d="M154.357,97.71c31.283,0,56.646,25.36,56.646,56.646c0,31.285-25.362,56.646-56.646,56.646
		c-31.285,0-56.646-25.361-56.646-56.646C97.711,123.071,123.072,97.71,154.357,97.71"/>
	<path fill="#FFFFFF" d="M225.164,15.316H83.55c-20.6,0-38.624,6.438-50.209,18.024C21.752,44.926,15.316,62.952,15.316,83.549
		v141.613c0,20.598,6.436,38.625,19.312,51.496c12.874,11.586,29.61,18.025,50.209,18.025h140.326
		c20.598,0,38.621-6.439,50.208-18.025c12.876-11.586,19.312-29.609,19.312-50.205V84.836c0-20.599-6.436-37.335-18.023-50.209
		C263.785,21.753,247.048,15.316,225.164,15.316 M154.357,241.9c-48.922,0-87.545-39.91-87.545-87.544
		c0-48.922,39.911-87.543,87.545-87.543c47.633,0,88.831,38.621,88.831,87.543C243.188,203.279,203.277,241.9,154.357,241.9
		 M245.761,83.549c-11.584,0-20.598-9.013-20.598-20.598c0-11.588,9.014-20.601,20.598-20.601c11.588,0,20.601,9.013,20.601,20.601
		C266.362,74.537,257.349,83.549,245.761,83.549"/>
</g>
</svg>
