<?xml version="1.0" encoding="utf-8"?>
<!-- Generator: Adobe Illustrator 15.0.0, SVG Export Plug-In . SVG Version: 6.00 Build 0)  -->
<!DOCTYPE svg PUBLIC "-//W3C//DTD SVG 1.1//EN" "http://www.w3.org/Graphics/SVG/1.1/DTD/svg11.dtd">
<svg version="1.1" id="Layer_1" xmlns="http://www.w3.org/2000/svg" xmlns:xlink="http://www.w3.org/1999/xlink" x="0px" y="0px"
	 width="310px" height="310px" viewBox="0 0 310 310" enable-background="new 0 0 310 310" xml:space="preserve">
<g>
	<path fill="#FFFFFF" d="M245.498,148.389H64.502c-28.769,0-52.09,23.345-52.09,52.109v41.869c0,28.764,23.321,52.102,52.09,52.102
		h180.996c28.764,0,52.09-23.338,52.09-52.102v-41.869C297.587,171.734,274.261,148.389,245.498,148.389 M102.528,180.984H85.702
		v83.611H69.444v-83.611H52.629v-14.223h49.899V180.984z M150.06,264.596h-14.419v-7.908c-2.681,2.926-5.442,5.156-8.326,6.664
		c-2.884,1.568-5.669,2.303-8.379,2.303c-3.349,0-5.837-1.064-7.541-3.229c-1.674-2.156-2.529-5.354-2.529-9.676v-60.334h14.42
		v55.369c0,1.709,0.319,2.938,0.895,3.699c0.622,0.785,1.61,1.145,2.965,1.145c1.047,0,2.395-0.5,4.018-1.512
		c1.634-1.023,3.122-2.303,4.477-3.883V192.41h14.419V264.596z M202.414,249.693c0,5.098-1.135,9.018-3.396,11.75
		c-2.25,2.732-5.541,4.076-9.803,4.076c-2.838,0-5.361-0.512-7.553-1.57c-2.203-1.045-4.279-2.656-6.168-4.889v5.529h-14.596
		v-97.828h14.596v31.51c1.953-2.182,4.016-3.873,6.174-5.008c2.203-1.156,4.418-1.715,6.662-1.715c4.564,0,8.043,1.523,10.449,4.6
		c2.42,3.076,3.621,7.582,3.621,13.488v40.057H202.414z M252.433,230.244h-27.594v13.6c0,3.791,0.465,6.432,1.406,7.9
		c0.965,1.479,2.588,2.199,4.896,2.199c2.396,0,4.051-0.623,5.018-1.867c0.93-1.256,1.43-3.988,1.43-8.232v-3.285h14.844v3.703
		c0,7.396-1.797,12.973-5.441,16.734c-3.588,3.727-8.994,5.576-16.182,5.576c-6.471,0-11.57-1.971-15.273-5.938
		c-3.693-3.941-5.576-9.412-5.576-16.367v-32.42c0-6.238,2.057-11.373,6.145-15.311c4.076-3.936,9.326-5.9,15.787-5.9
		c6.611,0,11.688,1.818,15.229,5.471c3.541,3.656,5.313,8.891,5.313,15.734V230.244z"/>
	<path fill="#FFFFFF" d="M231.281,203.254c-2.301,0-3.941,0.646-4.941,1.994c-1.023,1.268-1.5,3.436-1.5,6.465v7.297h12.75v-7.297
		c0-3.029-0.512-5.203-1.523-6.465C235.095,203.904,233.472,203.254,231.281,203.254"/>
	<path fill="#FFFFFF" d="M181.527,203.01c-1.021,0-2.057,0.227-3.051,0.697c-1.012,0.459-2.002,1.221-2.977,2.209v44.963
		c1.154,1.164,2.301,2.059,3.418,2.568c1.109,0.496,2.262,0.775,3.488,0.775c1.773,0,3.064-0.512,3.895-1.547
		c0.82-1.023,1.24-2.658,1.24-4.965v-37.277c0-2.453-0.488-4.291-1.514-5.553C184.97,203.637,183.47,203.01,181.527,203.01"/>
	<polygon fill="#FFFFFF" points="88.202,123.318 106.481,123.318 106.481,78.606 127.769,15.531 109.186,15.531 97.871,58.616 
		96.719,58.616 84.84,15.531 66.426,15.531 88.202,80.617 	"/>
	<path fill="#FFFFFF" d="M152.538,125.323c7.384,0,13.175-1.936,17.396-5.808c4.193-3.89,6.291-9.198,6.291-16.001V62.442
		c0-6.054-2.145-11.037-6.418-14.88c-4.303-3.832-9.814-5.762-16.537-5.762c-7.384,0-13.262,1.826-17.634,5.471
		c-4.361,3.646-6.553,8.536-6.553,14.716V103.2c0,6.763,2.134,12.111,6.395,16.123C139.74,123.319,145.438,125.323,152.538,125.323
		 M145.804,61.383c0-1.727,0.622-3.123,1.837-4.216c1.262-1.07,2.861-1.587,4.85-1.587c2.145,0,3.883,0.517,5.209,1.587
		c1.32,1.093,1.977,2.489,1.977,4.216v43.322c0,2.123-0.645,3.809-1.953,5.023c-1.297,1.221-3.041,1.82-5.233,1.82
		c-2.146,0-3.803-0.582-4.966-1.803c-1.146-1.191-1.727-2.866-1.727-5.047V61.383H145.804z"/>
	<path fill="#FFFFFF" d="M200.744,124.481c3.053,0,6.188-0.873,9.414-2.547c3.262-1.697,6.385-4.181,9.355-7.42v8.809h16.238v-79.51
		h-16.238v60.353c-1.512,1.728-3.191,3.146-4.996,4.272c-1.836,1.117-3.348,1.676-4.541,1.676c-1.521,0-2.645-0.42-3.301-1.285
		c-0.67-0.831-1.047-2.192-1.047-4.059V43.813h-16.217v66.452c0,4.738,0.955,8.279,2.838,10.629
		C194.167,123.276,196.97,124.481,200.744,124.481"/>
</g>
</svg>
