<?xml version="1.0" encoding="utf-8"?>
<!-- Generator: Adobe Illustrator 15.0.0, SVG Export Plug-In . SVG Version: 6.00 Build 0)  -->
<!DOCTYPE svg PUBLIC "-//W3C//DTD SVG 1.1//EN" "http://www.w3.org/Graphics/SVG/1.1/DTD/svg11.dtd">
<svg version="1.1" id="Layer_1" xmlns="http://www.w3.org/2000/svg" xmlns:xlink="http://www.w3.org/1999/xlink" x="0px" y="0px"
	 width="511.999px" height="511.999px" viewBox="0 0 511.999 511.999" enable-background="new 0 0 511.999 511.999"
	 xml:space="preserve">
<g>
	<defs>
		<rect id="SVGID_1_" y="-0.001" width="512" height="512"/>
	</defs>
	<clipPath id="SVGID_2_">
		<use xlink:href="#SVGID_1_"  overflow="visible"/>
	</clipPath>
	<path clip-path="url(#SVGID_2_)" fill="#FFFFFF" d="M497.913,497.912c-18.782,18.782-49.226,18.782-68.009,0l-84.861-84.862
		c-34.89,22.382-76.13,35.717-120.659,35.717C100.469,448.767,0,348.312,0,224.382C0,100.454,100.469,0,224.384,0
		c123.931,0,224.384,100.452,224.384,224.383c0,44.514-13.352,85.771-35.718,120.676l84.863,84.863
		C516.694,448.703,516.694,479.131,497.913,497.912 M224.384,64.108c-88.511,0-160.274,71.747-160.274,160.273
		s71.764,160.274,160.274,160.274c88.525,0,160.273-71.748,160.273-160.274S312.909,64.108,224.384,64.108"/>
</g>
</svg>
